<svg width="31" height="31" viewBox="0 0 31 31" fill="none" xmlns="http://www.w3.org/2000/svg">
<circle r="15" transform="matrix(-1 0 0 1 15.4104 15.7084)" fill="#F3E4E1"/>
<path d="M6.53477 21.9096C8.17265 17.4822 9.83501 13.064 11.4955 8.64396C11.7365 8.00653 12.1939 7.69603 12.9319 7.70881C14.5924 7.73804 16.2548 7.73256 17.9152 7.71064C18.6495 7.70151 19.0806 8.02479 19.3234 8.67501C20.9689 13.0658 22.6293 17.4494 24.2653 21.8438C24.6908 22.9854 24.1637 23.6794 22.9023 23.694C21.4282 23.7123 19.956 23.6977 18.4819 23.6977C18.0395 23.6977 17.5858 23.7178 17.3505 23.2393C17.1302 22.7973 17.4276 22.4904 17.6554 22.1671C18.5214 20.9416 19.0448 19.5973 19.1823 18.1105C19.2425 17.4475 18.9488 17.1352 18.2805 17.1334C17.341 17.1297 16.3997 17.1334 15.4603 17.1334C15.4603 17.1316 15.4603 17.1297 15.4603 17.1297C14.551 17.1297 13.6417 17.1169 12.7343 17.1334C11.7572 17.1498 11.5124 17.4311 11.6555 18.3845C11.8664 19.7891 12.3973 21.0731 13.2219 22.2493C13.813 23.095 13.5306 23.674 12.5065 23.6886C10.9401 23.7141 9.37188 23.7178 7.80554 23.6831C6.6722 23.6575 6.15259 22.9415 6.53477 21.9096ZM14.3251 12.9526C14.7731 13.4713 15.1308 14.001 15.2909 14.6804C15.4396 15.3142 15.8538 15.3288 16.315 14.9014C17.117 14.1544 17.2111 12.7736 16.4694 11.822C16.0533 11.2887 15.6655 10.7828 15.5262 10.0869C15.4132 9.5298 14.9671 9.47683 14.551 9.88596C14.0935 10.3316 13.8412 10.8741 13.8507 11.5681C13.8111 12.0558 13.9768 12.5526 14.3251 12.9526Z" fill="black" fill-opacity="0.6"/>
</svg>
